<?xml version="1.0" encoding="UTF-8"?>
<svg clip-rule="evenodd" stroke-linecap="round" stroke-linejoin="round" stroke-miterlimit="10" version="1.1" viewBox="0 0 938.53 683.58" xml:space="preserve" xmlns="http://www.w3.org/2000/svg" xmlns:cc="http://creativecommons.org/ns#" xmlns:dc="http://purl.org/dc/elements/1.1/" xmlns:rdf="http://www.w3.org/1999/02/22-rdf-syntax-ns#" xmlns:vectornator="http://vectornator.io"><title>gantry-crane-logo</title>
   

<clipPath id="ArtboardFrame">
<rect width="1e3" height="1e3"/>
</clipPath><g id="hook" transform="translate(-30.7 -95.711)" fill="#e1ab25" stroke="#e1ab25"><path d="m386.62 337.69 41.072 68.652z" stroke-width="8"/><path d="m383.04 338.45-41.073 68.651z" stroke-width="8"/><path d="m384.97 313.72c-0.829 0-1.5 0.753-1.5 1.687v17.344c0 0.934 0.671 1.688 1.5 1.688 0.828 0 1.5-0.754 1.5-1.688v-17.344c0-0.934-0.672-1.687-1.5-1.687z" stroke-width="11.308"/><path d="m369.87 303.07c0-1.656 6.716-3 15-3s15 1.344 15 3c0 1.657-6.716 3-15 3s-15-1.343-15-3z" stroke-linecap="square" stroke-width="32.175"/><path d="m382.46 295.84c0-5.4936 1.0372-9.9465 2.3163-9.9465s2.3163 4.4529 2.3163 9.9465c0 5.4919-1.0372 9.9448-2.3163 9.9448s-2.3163-4.4529-2.3163-9.9448z" stroke-width="11.477"/><path d="m404.88 101.97v190.16c0.498-0.066 0.963-0.255 1.469-0.281 0.153-8e-3 0.315 0.035 0.468 0.031v-189.91z" stroke-width="10"/><path d="m363.25 101.58v190.16c0.498-0.066 0.962-0.255 1.469-0.281 0.153-8e-3 0.315 0.035 0.468 0.031v-189.91z" stroke-width="10"/></g><g id="beam-top" transform="translate(-30.7 -95.711)"><g fill="#e1ab25" stroke="#e1ab25">
<path d="m899.93 171.87h55v35.106h-55z" stroke-width="28.6"/><path d="m45 171.87h55v35.106h-55z" stroke-width="28.6"/><path d="m75 187.5v0.187c1.5915 0.439 3.364 0.934 4.6187 1.281 10.97 3.038 18.683 5.248 26.436 7.594 14.22 4.304 27.759 8.637 43.709 13.938h700.47c15.95-5.301 29.489-9.634 43.709-13.938 7.753-2.346 15.466-4.556 26.436-7.594 1.255-0.347 3.027-0.842 4.619-1.281v-0.187h-850z" stroke-width="59.854"/><path d="m79.422 113.97v30h0.9375v-30zm120 0v30h0.937v-30zm120 0v30h0.937v-30zm120 0v30h0.937v-30zm120.22 0v30h0.937v-30zm120 0v30h0.937v-30zm120 0v30h0.937v-30zm120 0v30h0.937v-30z" stroke-linecap="round" stroke-linejoin="miter" stroke-width="13"/></g><g transform="translate(-.14837 .44056)" clip-rule="evenodd" stroke-linecap="round" stroke-linejoin="round" vectornator:layerName="Layer 3 copy">
<path d="m299.83 107.77v60h171v-60z" fill="#e1ab25" stroke="#e1ab25" stroke-linecap="square" stroke-linejoin="bevel" stroke-width="25"/>
</g></g><g id="beam-right" transform="translate(-30.7 -95.711)" fill="#e1ab25" stroke="#e1ab25">
<path d="m832.78 547.91-16.375 34.813c-1.492 0-2.687 1.225-2.687 2.719v185.47c0 1.494 1.195 2.688 2.687 2.688h57.875c1.493 0 2.688-1.194 2.688-2.688v-185.47c0-1.494-42.695-37.532-44.188-37.532z" clip-rule="evenodd" stroke-linecap="round" stroke-width="11.308"/><path d="m805.86 264.68h30v500h-30z" stroke-linecap="square" stroke-width="29.214"/>
</g><g id="beam-left" transform="translate(-30.7 -95.711)" fill="#e1ab25" stroke="#e1ab25">
<path d="m167.44 547.91c-1.493 0-44.188 36.038-44.188 37.532v185.47c0 1.494 1.195 2.688 2.688 2.688h57.843c1.493 0 2.719-1.194 2.719-2.688v-185.47c0-1.494-1.226-2.719-2.719-2.719z" clip-rule="evenodd" stroke-linecap="round" stroke-width="11.308"/><path d="m164.25 264.68h30v500h-30z" stroke-linecap="square" stroke-width="29.214"/>
</g><g id="containers" transform="translate(-30.7 -95.711)" stroke="#3a6d9e" stroke-width="31.339">

<path d="m334.97 414.68h100v100h-100z" fill="#3a6d9e"/><path d="m520.03 522.59v100h100v-100zm141 0v100h100v-100z" fill="#3a6d9e"/><path d="m239 663.44v100h100v-100zm141 0v100h100v-100zm140 0v100h100v-100zm141 0v100h100v-100z" fill="#3a6d9d"/></g><metadata><rdf:RDF><cc:Work rdf:about=""><dc:title>gantry-crane-logo</dc:title></cc:Work></rdf:RDF></metadata></svg>
